<svg xmlns="http://www.w3.org/2000/svg" width="256" height="256" viewBox="0 0 100 100"><rect width="100" height="100" rx="20" fill="#313135"></rect><path fill="#fff" d="M42.62 50.97L42.62 63.34Q42.62 64.36 42.02 65.05Q41.42 65.73 40.22 66.36L40.22 66.36Q38.80 67.04 36.29 67.56Q33.78 68.07 31.22 68.07L31.22 68.07Q27.23 68.07 23.92 66.99Q20.62 65.90 18.22 63.68Q15.83 61.46 14.52 58.07Q13.21 54.67 13.21 50.06L13.21 50.06Q13.21 45.50 14.57 42.08Q15.94 38.66 18.31 36.41Q20.67 34.15 23.81 33.04Q26.94 31.93 30.48 31.93L30.48 31.93Q32.87 31.93 34.89 32.33Q36.92 32.73 38.34 33.38Q39.77 34.04 40.57 34.84Q41.36 35.64 41.36 36.43L41.36 36.43Q41.36 37.23 40.91 37.80Q40.45 38.37 39.83 38.66L39.83 38.66Q38.29 37.63 36.18 36.75Q34.07 35.86 30.76 35.86L30.76 35.86Q28.03 35.86 25.69 36.78Q23.35 37.69 21.64 39.45Q19.93 41.22 18.96 43.90Q17.99 46.58 17.99 50.06L17.99 50.06Q17.99 53.76 18.99 56.41Q19.99 59.06 21.79 60.77Q23.58 62.48 26.00 63.31Q28.43 64.14 31.28 64.14L31.28 64.14Q33.33 64.14 35.15 63.79Q36.98 63.45 38.00 62.94L38.00 62.94L38.00 52.45L29.39 52.45Q29.22 52.17 29.05 51.68Q28.88 51.20 28.88 50.63L28.88 50.63Q28.88 49.66 29.34 49.12Q29.79 48.57 30.65 48.57L30.65 48.57L40.17 48.57Q41.19 48.57 41.91 49.23Q42.62 49.89 42.62 50.97L42.62 50.97ZM71.35 58.32L71.35 58.32Q70.95 58.61 70.29 58.83Q69.64 59.06 68.84 59.06L68.84 59.06Q67.93 59.06 67.21 58.78Q66.50 58.49 66.22 57.87L66.22 57.87Q63.14 51.48 60.92 46.18Q58.69 40.88 57.32 37.40L57.32 37.40L57.10 37.40Q56.93 41.68 56.73 45.35Q56.53 49.03 56.30 52.54Q56.07 56.04 55.84 59.63Q55.61 63.22 55.39 67.33L55.39 67.33Q55.04 67.44 54.50 67.56Q53.96 67.67 53.33 67.67L53.33 67.67Q52.08 67.67 51.57 67.16Q51.05 66.64 51.05 65.67L51.05 65.67Q51.05 65.10 51.14 63.22Q51.23 61.34 51.40 58.66Q51.57 55.98 51.77 52.74Q51.97 49.49 52.22 46.12Q52.48 42.76 52.74 39.51Q52.99 36.26 53.22 33.58L53.22 33.58Q53.68 33.18 54.53 32.84Q55.39 32.50 56.47 32.50L56.47 32.50Q59.09 32.50 60.12 34.61L60.12 34.61Q61.20 36.83 62.31 39.31Q63.42 41.79 64.53 44.36Q65.65 46.92 66.70 49.43Q67.76 51.94 68.72 54.22L68.72 54.22L68.95 54.22Q70.21 51.20 71.46 48.26Q72.71 45.33 73.91 42.59Q75.11 39.85 76.19 37.46Q77.27 35.07 78.13 33.07L78.13 33.07Q78.64 32.79 79.44 32.64Q80.24 32.50 80.92 32.50L80.92 32.50Q83.60 32.50 84.00 34.32L84.00 34.32Q84.23 35.35 84.51 37.72Q84.80 40.08 85.08 43.16Q85.37 46.24 85.63 49.77Q85.88 53.31 86.11 56.58Q86.34 59.86 86.51 62.63Q86.68 65.39 86.79 66.99L86.79 66.99Q85.77 67.67 84.40 67.67L84.40 67.67Q83.54 67.67 82.89 67.24Q82.23 66.81 82.12 65.67L82.12 65.67Q81.83 61.51 81.61 57.41Q81.38 53.31 81.18 49.60Q80.98 45.90 80.81 42.79Q80.64 39.68 80.52 37.52L80.52 37.52L80.30 37.52Q79.67 39.11 78.84 41.11Q78.02 43.10 76.90 45.61Q75.79 48.12 74.42 51.28Q73.06 54.45 71.35 58.32Z"></path></svg>